<svg width="229" height="64" viewBox="0 0 229 64" fill="none" xmlns="http://www.w3.org/2000/svg">
<path d="M29.454 62.4655L28.776 61.7755L29.5254 61.1213C31.7262 59.2179 34.0697 57.5882 36.199 56.4938C37.805 55.6729 37.8764 55.554 36.7819 55.554C35.7351 55.5659 34.8072 56.006 32.2377 57.7547C28.4905 60.2886 27.17 60.812 24.4459 60.8358C23.1849 60.8358 22.7091 60.7882 21.9001 60.5741C20.4964 60.1934 19.3901 59.6938 18.2719 58.9562C17.2726 58.29 16.4756 57.5644 16.9514 57.7547C20.6273 59.1941 23.3871 58.8254 29.1448 56.1131C30.3581 55.5421 31.75 55.0662 32.892 54.8164C34.0102 54.5785 37.0793 54.6142 38.3879 54.8878C39.4109 55.09 39.5418 55.09 40.4697 54.9235C42.7061 54.4952 44.8355 54.5666 46.9529 55.1376C47.5596 55.2923 48.9752 55.8514 50.1053 56.3748C52.425 57.4335 54.6734 58.2425 56.0176 58.4804C57.7306 58.7778 59.5269 58.6231 61.1804 58.0164C61.6206 57.8618 61.9775 57.7547 61.9775 57.8023C61.9775 57.9332 60.6451 58.9443 59.8957 59.3845C59.0749 59.8722 57.9804 60.3123 56.8622 60.6216C55.6607 60.9547 52.9485 60.9309 51.7113 60.5741C50.3433 60.1815 48.9514 59.432 46.4652 57.7666C45.2518 56.9458 44.0503 56.1726 43.7886 56.0417C43.2414 55.7562 42.2184 55.5778 41.5879 55.6491C41.1358 55.6967 41.1358 55.7086 42.5395 56.4343C44.3239 57.3503 46.7626 59.0038 48.5351 60.4789C49.2845 61.1094 49.915 61.6566 49.9388 61.7161C49.9507 61.7636 49.6414 62.1205 49.2607 62.5012L48.547 63.203L46.4652 61.1689C45.3113 60.0506 43.8005 58.7064 43.0987 58.183C41.8615 57.2432 39.8868 56.1488 39.4585 56.1488C39.1849 56.1488 37.805 56.7793 37.0555 57.2432C35.5685 58.183 34.0816 59.432 31.75 61.7042C30.9291 62.5131 30.2273 63.1674 30.2035 63.1674C30.1678 63.1674 29.8347 62.8581 29.454 62.4655Z" fill="#111111"/>
<path d="M57.1595 56.6722C54.3283 56.3986 50.5216 55.6254 48.8324 54.9592C48.4755 54.8165 48.4874 54.8165 49.4985 54.4834C51.6041 53.7934 53.9 52.4135 55.3751 50.9622C55.7082 50.641 56.5171 49.7726 57.1952 49.047C58.2301 47.9168 60.2881 46.1562 60.5736 46.1562C60.7759 46.1562 59.1104 49.5823 58.3134 50.8076C57.6472 51.8306 56.6004 52.818 55.4941 53.4603C54.6376 53.9719 54.4591 54.3168 55.1134 54.1979C56.0175 54.0432 57.8019 53.8886 60.193 53.7696C62.9766 53.6388 64.3803 53.4009 65.7246 52.8774C66.6049 52.5325 67.6755 51.9733 68.1513 51.6046C68.5677 51.2834 68.6034 51.438 68.2227 51.9496C66.3194 54.4834 64.309 55.8633 61.7038 56.3986C60.6688 56.6009 58.0993 56.7674 57.1595 56.6722Z" fill="#111111"/>
<path d="M18.0219 56.5414C15.726 56.2321 13.9059 55.3756 12.3237 53.9005C11.5862 53.1986 10.1825 51.5213 10.2658 51.4261C10.3014 51.4023 10.6345 51.5689 11.0152 51.8187C12.3951 52.699 14.0011 53.2819 15.7974 53.5317C16.2732 53.5912 17.7959 53.7102 19.1877 53.7696C20.5795 53.841 22.2092 53.96 22.8159 54.0432C23.4226 54.1384 23.946 54.1741 23.9698 54.1384C24.1126 54.0076 23.9817 53.8767 23.3156 53.4722C21.4241 52.3302 20.5438 51.2358 19.0806 48.2261C18.236 46.5012 18.1052 46.1562 18.2836 46.1562C18.5215 46.1562 20.3059 47.6551 21.2338 48.6425C23.4464 50.986 24.4695 51.9496 25.3974 52.5562C26.5513 53.3295 27.9193 53.9957 29.2397 54.4239C29.775 54.6023 30.2152 54.7689 30.2152 54.7927C30.2152 54.876 27.8598 55.5659 26.5394 55.8633C24.1245 56.3986 22.233 56.6247 20.2226 56.6009C19.2115 56.6009 18.2241 56.5652 18.0219 56.5414Z" fill="#111111"/>
<path d="M101.424 55.2566C100.687 54.9949 100.365 54.7094 99.9848 53.9481C99.6398 53.2581 99.6279 53.1867 99.6279 51.5689C99.6279 50.0819 99.6517 49.844 99.9015 49.3087C100.473 48.0715 101.246 47.5838 102.661 47.5957C103.756 47.5957 104.458 47.905 104.945 48.6068C105.386 49.2254 105.695 50.4864 105.588 51.2001L105.505 51.7473H102.947H100.401V52.354C100.401 53.1986 100.794 54.0552 101.341 54.3882C101.745 54.6499 101.876 54.6618 103.53 54.6262L105.278 54.5905V54.8879C105.278 55.1377 105.219 55.1853 104.719 55.2447C103.161 55.4232 101.876 55.4351 101.424 55.2566ZM104.803 50.76C104.803 50.1176 104.446 49.1183 104.101 48.7615C103.458 48.131 102.126 48.0358 101.329 48.583C100.829 48.928 100.484 49.6299 100.425 50.4626L100.377 51.1525H102.59H104.803V50.76Z" fill="#111111"/>
<path d="M108.55 55.3159C107.36 55.1732 107.301 55.1494 107.301 54.7806V54.4713L108.407 54.5665C110.025 54.7092 110.644 54.6735 111.167 54.4118C112.024 53.9955 112.19 52.7345 111.465 52.1992C111.298 52.0802 110.739 51.9018 110.215 51.7947C108.681 51.4973 108.027 51.2713 107.622 50.9263C107.301 50.6289 107.253 50.4981 107.206 49.8319C107.158 48.8327 107.408 48.3449 108.205 47.9405C108.728 47.6788 108.919 47.6431 110.156 47.6431C110.905 47.6431 111.726 47.6906 111.976 47.7382C112.369 47.8215 112.416 47.8691 112.416 48.2022C112.416 48.4877 112.381 48.5472 112.214 48.4877C112.107 48.4401 111.417 48.3687 110.691 48.333C109.192 48.2498 108.633 48.3806 108.253 48.8565C107.943 49.2609 107.931 50.0817 108.229 50.3553C108.514 50.617 109.311 50.8788 110.275 51.0334C110.691 51.0929 111.334 51.2951 111.702 51.4736C112.262 51.7591 112.392 51.8899 112.583 52.3538C112.749 52.7702 112.785 53.0438 112.725 53.4483C112.488 54.9947 111.131 55.6014 108.55 55.3159Z" fill="#111111"/>
<path d="M116.104 55.2565C115.01 54.9115 114.355 53.8052 114.236 52.0922C114.07 49.8439 114.819 48.1785 116.211 47.7145C116.842 47.5123 118.114 47.5599 118.673 47.8097C119.673 48.2617 120.268 49.4394 120.268 50.9264V51.7472H117.65H115.033V52.2231C115.033 52.7822 115.331 53.7338 115.616 54.055C115.723 54.174 116.033 54.3762 116.306 54.5071C116.746 54.6974 116.984 54.7212 118.424 54.6498L120.03 54.5666V54.864C120.03 55.1495 119.982 55.1733 119.352 55.2446C117.555 55.4231 116.627 55.4231 116.104 55.2565ZM119.435 50.5457C119.435 49.7487 119.042 48.8446 118.555 48.5472C117.71 48.0357 116.556 48.1309 115.807 48.7851C115.366 49.1777 115.033 50.0223 115.033 50.7599V51.1524H117.234H119.435V50.5457Z" fill="#111111"/>
<path d="M129.07 55.1733C128.226 54.745 128.131 54.3168 128.119 51.0692V48.4164H127.524C126.941 48.4164 126.929 48.4045 126.929 48.0595C126.929 47.7146 126.941 47.7027 127.524 47.7027H128.119V46.5131V45.3235H128.535H128.952V46.5131V47.7027H130.201H131.45V48.0595V48.4164H130.201H128.952L128.963 51.0097C128.963 54.6023 129.059 54.7926 130.712 54.6499L131.569 54.5785V54.9473C131.569 55.2566 131.521 55.3161 131.283 55.3161C131.14 55.3161 130.688 55.3517 130.308 55.3874C129.725 55.4469 129.523 55.4112 129.07 55.1733Z" fill="#111111"/>
<path d="M146.427 55.3159C145.332 55.1256 144.892 54.7568 144.523 53.6981C144.202 52.7821 144.119 51.5687 144.285 50.3315C144.44 49.1301 144.761 48.4996 145.463 47.9999C145.986 47.6431 145.998 47.6431 147.581 47.6431C148.449 47.655 149.186 47.6788 149.222 47.7025C149.246 47.7382 149.246 47.8929 149.21 48.0594L149.163 48.3568L147.83 48.3211C146.593 48.2854 146.462 48.2973 146.082 48.5591C145.844 48.7137 145.546 49.0825 145.38 49.4037C144.987 50.1888 144.904 51.8423 145.178 52.9367C145.57 54.4594 145.915 54.6736 147.902 54.626L149.294 54.5903V54.8877C149.294 55.1375 149.222 55.197 148.913 55.2446C148.08 55.3754 146.95 55.3992 146.427 55.3159Z" fill="#111111"/>
<path d="M152.136 55.3278C151.173 55.0185 150.661 54.1858 150.745 53.02C150.828 51.6401 151.494 51.1166 153.421 50.9144C154.064 50.843 154.813 50.7598 155.099 50.7241L155.598 50.6646V50.0698C155.598 49.356 155.36 48.7494 154.991 48.4876C154.694 48.2854 153.195 48.2378 151.887 48.4044L151.197 48.4876V48.1665C151.197 47.7739 151.363 47.7263 153.29 47.6192C154.623 47.5598 154.777 47.5717 155.277 47.8096C155.681 48.0118 155.884 48.2021 156.062 48.5828C156.288 49.0468 156.312 49.3085 156.312 51.6163C156.312 54.1382 156.312 54.1382 156.609 54.4237C156.764 54.5902 157.002 54.7211 157.145 54.7211C157.394 54.7211 157.466 55.0066 157.287 55.2802C157.168 55.4705 156.383 55.2921 155.955 54.9828C155.681 54.7806 155.598 54.7687 155.289 54.8995C154.444 55.2564 152.66 55.4943 152.136 55.3278ZM154.539 54.4713L155.598 54.2215V52.7464V51.2594L155.218 51.3189C155.003 51.3546 154.29 51.4378 153.635 51.5092C151.91 51.6876 151.494 52.0564 151.601 53.3531C151.649 53.9598 151.708 54.1144 152.018 54.388C152.481 54.8044 153.052 54.8282 154.539 54.4713Z" fill="#111111"/>
<path d="M160.416 55.2685C159.488 54.8521 159.286 54.067 159.286 50.8313V48.4164H158.751C158.239 48.4164 158.215 48.4045 158.215 48.0595C158.215 47.7146 158.239 47.7027 158.751 47.7027H159.286V46.5131V45.3235H159.702H160.119V46.5131V47.7027H161.427H162.736V48.0595V48.4164H161.415H160.095L160.142 51.0692C160.178 52.806 160.25 53.841 160.345 54.0908C160.535 54.5904 161.011 54.745 161.974 54.6499C162.712 54.5666 162.724 54.5785 162.807 54.8878C162.843 55.0662 162.867 55.2328 162.843 55.2447C162.819 55.2685 162.343 55.3279 161.784 55.3636C161.047 55.4231 160.678 55.3993 160.416 55.2685Z" fill="#111111"/>
<path d="M169.386 55.3159C168.22 55.1137 167.744 54.6617 167.363 53.3888C167.149 52.6869 167.114 52.342 167.161 51.1643C167.209 49.9033 167.244 49.6892 167.554 49.0587C167.851 48.4639 168.018 48.2973 168.565 47.9999C169.16 47.6788 169.326 47.6431 170.29 47.6431C171.23 47.6431 171.444 47.6907 171.979 47.9643C172.728 48.3687 172.907 48.6066 173.228 49.6416C173.704 51.2356 173.359 53.9598 172.574 54.6973C171.991 55.2446 170.552 55.5301 169.386 55.3159ZM171.67 54.4237C171.908 54.2929 172.122 54.0312 172.288 53.6743C172.788 52.5442 172.669 49.6059 172.098 48.904C171.61 48.3092 169.992 48.1189 169.065 48.5353C168.66 48.7137 168.494 48.8802 168.291 49.3323C168.065 49.8319 168.03 50.0936 168.041 51.5092C168.041 53.7338 168.315 54.3286 169.409 54.6141C169.98 54.7568 171.23 54.6498 171.67 54.4237Z" fill="#111111"/>
<path d="M90.6465 49.951V44.7168L93.1208 44.7525C95.5119 44.7882 95.6071 44.8001 96.1781 45.0975C96.8799 45.4662 97.4272 46.1324 97.7959 47.0722C98.0101 47.6313 98.0695 48.0714 98.1171 49.3919C98.2004 51.9614 97.8316 53.377 96.8443 54.3406C96.0591 55.09 95.6071 55.1971 92.9424 55.1971H90.6465V49.951ZM95.5833 54.2573C96.8443 53.6744 97.3915 52.1042 97.2725 49.3919C97.213 47.8216 96.987 46.9889 96.4517 46.3465C95.8331 45.5852 95.5714 45.5138 93.4182 45.4662L91.4792 45.4187V49.951V54.4833H93.2993C94.7982 54.4833 95.1907 54.4358 95.5833 54.2573Z" fill="#111111"/>
<path d="M122.29 51.4499V47.7027H122.706C123.122 47.7027 123.122 47.7027 123.122 48.238C123.122 48.5354 123.146 48.7733 123.182 48.7733C123.217 48.7733 123.443 48.6425 123.693 48.4997C124.145 48.2023 125.62 47.5837 125.846 47.5837C125.918 47.5837 125.977 47.7622 125.977 47.9763C125.977 48.3451 125.942 48.3808 125.394 48.5235C125.061 48.6068 124.419 48.8566 123.967 49.0707L123.122 49.4752V52.3421V55.1971H122.706H122.29V51.4499Z" fill="#111111"/>
<path d="M133.234 51.4498V47.7026H133.65H134.067V51.4498V55.1971H133.65H133.234V51.4498Z" fill="#111111"/>
<path d="M136.803 51.8067V48.4163H136.267C135.756 48.4163 135.732 48.4044 135.732 48.0595C135.732 47.7145 135.756 47.7026 136.267 47.7026H136.803V46.6676C136.814 44.6097 137.528 43.9435 139.467 44.1814C140.074 44.2647 140.133 44.3004 140.133 44.5621C140.133 44.8357 140.098 44.8476 139.336 44.8476C137.956 44.8476 137.659 45.1807 137.552 46.7628L137.481 47.7026H138.694H139.896V48.0595V48.4163H138.706H137.516V51.8067V55.197H137.159H136.803V51.8067Z" fill="#111111"/>
<path d="M141.561 51.4498V47.7026H141.918H142.275V51.4498V55.1971H141.918H141.561V51.4498Z" fill="#111111"/>
<path d="M164.52 51.4498V47.7026H164.877H165.234V51.4498V55.1971H164.877H164.52V51.4498Z" fill="#111111"/>
<path d="M175.227 51.4498V47.7025H175.643C176 47.7025 176.059 47.7382 176.059 47.988V48.2854L176.749 47.9643C177.332 47.6907 177.582 47.6431 178.569 47.6431C179.628 47.6431 179.735 47.6669 180.128 47.9643C180.877 48.5353 180.972 49.0111 181.032 52.3182L181.079 55.197H180.651H180.223V52.6512C180.223 49.7249 180.116 49.023 179.592 48.5828C179.307 48.3449 179.128 48.2973 178.462 48.2973C177.963 48.3092 177.38 48.4044 176.892 48.5709L176.119 48.8327L176.083 52.0208L176.059 55.197H175.643H175.227V51.4498Z" fill="#111111"/>
<path d="M19.1522 52.4372C18.5931 52.3182 17.2369 52.0922 16.1187 51.9257C13.68 51.5569 12.6332 51.2833 11.3366 50.6766C9.26667 49.7011 7.51797 48.1784 5.92391 45.9182C5.11499 44.7762 3.59232 41.9926 3.77076 41.9926C3.83023 41.9926 4.18711 42.3138 4.57968 42.7182C5.3886 43.539 6.8518 44.7167 7.89864 45.371C8.2912 45.6208 9.73061 46.3703 11.1105 47.0483C13.3708 48.1546 15.2027 49.2491 16.6302 50.3197C17.2726 50.7955 17.2726 50.629 16.6421 50.0223C15.9879 49.3799 15.0957 48.2498 14.6436 47.4885C13.8704 46.168 13.68 45.5019 13.1447 42.3019C12.8592 40.5889 12.5975 39.0424 12.5499 38.8402C12.4786 38.4952 12.4905 38.4952 12.9901 39.0305C14.3224 40.4342 15.6905 43.0037 16.7849 46.0967C17.7722 48.916 18.605 50.5933 19.7113 51.9375C19.9968 52.3063 20.2228 52.6156 20.199 52.6275C20.1752 52.6394 19.7113 52.5561 19.1522 52.4372Z" fill="#111111"/>
<path d="M58.599 52.5682C59.9314 50.9027 60.8949 49.1778 61.6682 47.0485C61.9061 46.3942 62.263 45.4068 62.4652 44.8477C62.941 43.563 63.8451 41.7429 64.4875 40.7793C65.118 39.8514 66.1529 38.5191 66.2124 38.5786C66.2957 38.65 65.1894 45.0143 64.9871 45.621C64.5351 47.0366 63.6191 48.4879 62.2868 49.9392C61.9061 50.3436 61.6325 50.6767 61.6682 50.6767C61.7158 50.6767 62.1321 50.3912 62.6079 50.0343C63.9522 49.0351 65.4154 48.1786 68.1752 46.8225C70.9827 45.4425 72.2198 44.6217 73.9685 43.0039C74.718 42.302 75.0273 42.0641 74.9559 42.2663C74.4682 43.5392 72.886 46.0611 71.6488 47.5124C71.2682 47.9645 70.5187 48.6901 69.9953 49.1184C68.092 50.6648 66.141 51.45 63.2265 51.8663C61.5254 52.1161 59.5864 52.4611 58.825 52.6514C58.5277 52.7228 58.492 52.7109 58.599 52.5682Z" fill="#111111"/>
<path d="M36.758 49.4751C32.3327 48.9755 27.8836 47.1078 24.3862 44.2885C23.161 43.3011 21.0197 41.0528 20.187 39.887C17.8554 36.6038 16.5111 33.4038 15.7974 29.3829C15.5476 27.9792 15.5952 23.3279 15.8688 21.829C17.1059 15.0603 20.7223 9.46918 26.2301 5.80524C27.6457 4.86546 30.3223 3.56881 31.9045 3.04539C33.6294 2.47438 35.7587 2.05803 37.7335 1.90338C40.6004 1.67736 43.9907 2.09372 46.8457 3.04539C48.4398 3.56881 51.1164 4.86546 52.5201 5.79334C57.1833 8.87438 60.6331 13.5495 62.2033 18.9383L62.5483 20.116L62.2985 20.2707C59.6695 21.8528 56.6955 23.9108 52.3416 27.1584C49.0227 29.6327 48.0591 30.4179 46.1082 32.2023L44.8115 33.3919L42.8368 32.4878C41.7543 31.9881 40.7431 31.5242 40.5885 31.4647C40.3387 31.3577 40.6004 31.1197 43.8598 28.4788C51.0331 22.6974 54.0071 20.461 55.3513 19.8186C56.3981 19.3309 58.2777 18.7123 59.0866 18.6052C60.0383 18.4863 60.0383 18.4863 59.4911 17.1777C56.755 10.635 50.9022 5.79334 43.8955 4.30635C34.1885 2.22457 24.2673 7.00673 19.8777 15.8811C18.7238 18.2008 17.9506 20.7822 17.6651 23.2209C17.5818 24.0179 17.3558 23.8989 19.6041 24.1963C21.3528 24.4342 23.3751 24.9339 25.0167 25.5525C27.0985 26.3376 32.6539 28.9547 38.3996 31.8454C41.4212 33.3681 44.3357 34.8075 44.8829 35.0216C46.7149 35.7829 48.4279 35.9614 51.152 35.6878C51.8182 35.6164 52.4011 35.5926 52.4368 35.6283C52.5558 35.7354 50.6762 37.5078 49.8673 38.0551C47.952 39.3517 46.239 39.8751 43.955 39.887C42.0874 39.8989 41.4688 39.7562 38.9825 38.7926C36.7342 37.9123 36.0918 37.6982 33.7959 37.0439C31.4881 36.3896 30.1558 36.1874 29.668 36.4134C29.1446 36.6632 29.1684 37.0201 29.7513 37.6506C30.7981 38.7926 32.6182 39.8989 34.5929 40.6127C37.6383 41.7071 42.2182 41.8023 45.8584 40.8625C49.439 39.9346 51.9491 38.2811 55.6249 34.4268C58.2182 31.7145 60.2643 30.0729 62.2985 29.038L63.0479 28.6692L62.9766 29.0498C62.465 32.0476 61.8465 34.0461 60.7045 36.342C60.0145 37.722 59.0985 39.1971 58.1825 40.3867C57.4212 41.3978 55.4227 43.432 54.3639 44.2885C50.8427 47.1316 46.4532 48.9636 41.9327 49.487C40.6955 49.6179 38.0427 49.6179 36.758 49.4751Z" fill="#111111"/>
<path d="M11.5388 45.716C10.9203 45.2997 9.71877 44.574 8.86226 44.1101C6.44739 42.7896 6.37602 42.754 5.60278 42.0997C3.09275 40.006 1.16561 35.8662 0.880108 31.9287C0.832524 31.3458 0.832524 30.8937 0.868212 30.9294C0.9039 30.9651 1.07044 31.3696 1.24888 31.8216C1.93884 33.6536 2.95 35.1644 4.48457 36.6395C6.63773 38.7093 8.39832 40.5413 8.86226 41.1956C9.12397 41.5644 9.37379 41.8737 9.40947 41.8737C9.45706 41.8737 9.36189 41.5644 9.21914 41.1956C8.85037 40.2677 8.56486 38.8402 8.56486 37.8885C8.56486 37.2462 9.25483 32.5592 9.6117 30.751L9.70687 30.2751L10.0875 31.4647C10.7894 33.6774 11.063 35.5926 11.063 38.2097C11.063 40.8625 11.4675 43.1227 12.324 45.3711C12.55 45.954 12.7165 46.4417 12.7046 46.4536C12.6808 46.4655 12.1574 46.1324 11.5388 45.716Z" fill="#111111"/>
<path d="M66.022 46.4653C66.022 46.4178 66.0934 46.2393 66.1885 46.0609C66.4859 45.478 67.0807 43.5627 67.3305 42.385C67.509 41.5285 67.6041 40.446 67.6874 38.3642C67.8183 34.843 68.0205 33.5583 68.7818 31.191C69.0316 30.4178 69.2339 30.3107 69.2339 30.965C69.2339 31.1791 69.448 32.6066 69.7097 34.1412C70.0071 35.878 70.1855 37.3174 70.1855 37.9479C70.1855 38.9709 69.9 40.446 69.5313 41.3263C69.4242 41.5761 69.3647 41.8021 69.3885 41.8259C69.4123 41.8616 69.6502 41.5999 69.9119 41.2549C70.8517 40.0178 71.8986 38.8876 73.1952 37.7456C75.3841 35.8066 76.6093 34.1769 77.4539 32.0475C77.6562 31.536 77.8584 31.0839 77.8941 31.0482C78.0487 30.8936 77.7632 33.3798 77.5015 34.4624C76.764 37.5077 75.4673 39.9345 73.6116 41.707C72.7432 42.5516 72.1008 42.9679 70.0785 44.0624C68.8056 44.7523 68.1394 45.1568 66.2956 46.3583C66.1409 46.4534 66.022 46.501 66.022 46.4653Z" fill="#111111"/>
<path d="M133.234 45.1449C133.234 44.6096 133.234 44.6096 133.65 44.6096C134.067 44.6096 134.067 44.6096 134.067 45.1449C134.067 45.6803 134.067 45.6803 133.65 45.6803C133.234 45.6803 133.234 45.6803 133.234 45.1449Z" fill="#111111"/>
<path d="M141.561 45.1449C141.561 44.6334 141.573 44.6096 141.918 44.6096C142.263 44.6096 142.275 44.6334 142.275 45.1449C142.275 45.6565 142.263 45.6803 141.918 45.6803C141.573 45.6803 141.561 45.6565 141.561 45.1449Z" fill="#111111"/>
<path d="M164.52 45.1449C164.52 44.6334 164.532 44.6096 164.877 44.6096C165.222 44.6096 165.234 44.6334 165.234 45.1449C165.234 45.6565 165.222 45.6803 164.877 45.6803C164.532 45.6803 164.52 45.6565 164.52 45.1449Z" fill="#111111"/>
<path d="M92.7643 39.09C91.4438 38.7332 90.8133 37.9123 90.4684 36.1161C90.1591 34.4982 90.278 31.893 90.7182 30.5369C91.0988 29.3711 92.2052 28.574 93.5851 28.4551C94.2275 28.4075 96.3925 28.5978 96.7732 28.7406C96.8446 28.7763 96.8922 28.9428 96.8565 29.1332C96.8089 29.4662 96.8089 29.4662 96.2617 29.3592C95.3457 29.1926 93.6089 29.1926 93.0141 29.3592C91.6104 29.7755 91.1821 30.8581 91.194 33.9629C91.2059 36.6395 91.5509 37.6863 92.6096 38.2335C93.1212 38.4952 94.3821 38.5547 95.9762 38.3882L96.8327 38.3049V38.6499C96.8327 38.983 96.8089 38.9949 95.9405 39.1257C94.7866 39.2923 93.478 39.2804 92.7643 39.09Z" fill="#111111"/>
<path d="M100.342 39.1495C99.8063 39.0186 99.2472 38.6974 99.0331 38.4C98.9261 38.2454 98.7357 37.7696 98.6049 37.3175C98.3907 36.6513 98.3669 36.2707 98.3907 35.0573C98.4383 33.7249 98.4621 33.5465 98.7952 32.8922C99.1164 32.2617 99.2353 32.1428 99.8658 31.8216C100.806 31.3577 102.031 31.3339 102.994 31.7502C104.22 32.2974 104.624 33.1896 104.624 35.3904C104.624 37.6387 104.113 38.7093 102.864 39.0781C102.245 39.2684 100.96 39.2922 100.342 39.1495ZM102.721 38.3762C103.22 38.1621 103.482 37.7696 103.684 36.9012C104.065 35.3071 103.78 33.2134 103.113 32.6543C102.412 32.0595 101.139 31.9762 100.175 32.464C99.7826 32.6662 99.6636 32.8209 99.4495 33.3919C99.2234 33.9986 99.1997 34.2603 99.2353 35.5688C99.2948 37.4365 99.4971 37.9956 100.211 38.3168C100.806 38.5904 102.138 38.6142 102.721 38.3762Z" fill="#111111"/>
<path d="M121.992 39.1018C120.934 38.614 120.41 37.6386 120.303 35.9731C120.184 34.2601 120.553 32.9278 121.35 32.1427C121.861 31.643 122.409 31.4646 123.491 31.4646C124.288 31.4646 124.455 31.5003 124.978 31.8215C125.835 32.3568 126.251 33.2133 126.311 34.6289L126.358 35.6876H123.717H121.064L121.136 36.4014C121.207 37.2817 121.612 38.0192 122.171 38.3285C122.54 38.5308 122.777 38.5546 124.276 38.507C125.954 38.4594 125.954 38.4594 126.013 38.733C126.085 39.1137 125.942 39.1494 124.015 39.2088C122.754 39.2564 122.266 39.2207 121.992 39.1018ZM125.502 34.4029C125.502 33.6178 124.99 32.6304 124.431 32.333C123.836 32.0118 122.611 32.0832 122.076 32.4639C121.576 32.8088 121.219 33.5345 121.136 34.3315L121.064 34.9739H123.289H125.502V34.4029Z" fill="#111111"/>
<path d="M136.946 39.0186C136.184 38.5547 136.089 38.1264 136.089 35.0097V32.238H135.494C134.911 32.238 134.899 32.2261 134.899 31.8811C134.899 31.5361 134.911 31.5242 135.494 31.5242H136.089V30.3346V29.145H136.505H136.922V30.3346V31.5242H138.171H139.42V31.8811V32.238H138.171H136.922L136.91 34.3554C136.886 37.0796 136.91 37.5673 137.1 38.0313C137.302 38.4952 137.588 38.5904 138.706 38.519L139.539 38.4714V38.7926C139.539 39.0543 139.467 39.1257 139.17 39.1852C138.373 39.3398 137.35 39.2684 136.946 39.0186Z" fill="#111111"/>
<path d="M145.38 39.0899C144.69 38.8639 144.238 38.3999 143.917 37.6029C143.691 37.0319 143.655 36.7107 143.643 35.3308C143.643 33.8081 143.655 33.6891 143.988 32.9754C144.309 32.2854 144.381 32.214 145.106 31.8572C145.749 31.536 146.022 31.4765 146.724 31.4646C147.652 31.4646 148.663 31.8334 149.163 32.3687C149.591 32.8326 149.888 34.0222 149.888 35.3189C149.877 37.2579 149.496 38.3404 148.616 38.8639C148.175 39.1256 147.914 39.1732 146.998 39.2088C146.26 39.2445 145.725 39.1969 145.38 39.0899ZM148.056 38.2929C148.818 37.936 148.996 37.365 148.996 35.3903C148.996 33.4512 148.818 32.8921 148.068 32.4639C147.355 32.0594 146.117 32.0594 145.392 32.4639C144.94 32.7256 144.856 32.8445 144.654 33.5226C144.238 34.8787 144.416 37.3531 144.987 37.9955C145.32 38.3642 145.856 38.5308 146.724 38.5427C147.331 38.5427 147.688 38.4713 148.056 38.2929Z" fill="#111111"/>
<path d="M164.27 38.9829C163.557 38.5071 163.461 38.0313 163.461 34.9502L163.45 32.238H162.914C162.403 32.238 162.379 32.2261 162.379 31.8811C162.379 31.5361 162.403 31.5242 162.914 31.5242H163.45V30.3346V29.145H163.866H164.282V30.3346V31.5242H165.531H166.78V31.8811V32.238H165.519H164.258L164.306 35.0692C164.33 36.6157 164.389 37.9718 164.449 38.0907C164.603 38.4238 165.174 38.5785 166.067 38.519L166.899 38.4714V38.7926C166.899 39.1852 166.685 39.2565 165.519 39.2565C164.829 39.2565 164.603 39.209 164.27 38.9829Z" fill="#111111"/>
<path d="M169.968 39.0899C169.207 38.8163 168.91 38.5427 168.6 37.8646C167.982 36.5085 167.958 34.3077 168.553 32.9278C169.112 31.6073 171.182 31.0482 172.811 31.762C173.977 32.2735 174.417 33.249 174.417 35.2951C174.405 37.3531 174.013 38.4237 173.061 38.9114C172.419 39.2564 170.658 39.3516 169.968 39.0899ZM172.681 38.2453C173.133 37.9836 173.228 37.8527 173.406 37.2579C173.692 36.3062 173.692 34.2958 173.406 33.4631C173.275 33.0824 173.061 32.7494 172.871 32.6185C171.717 31.8096 169.873 32.0713 169.362 33.1062C168.993 33.8438 168.862 35.0691 169.017 36.2349C169.266 38.1025 169.707 38.5427 171.289 38.5427C172.014 38.5427 172.264 38.4951 172.681 38.2453Z" fill="#111111"/>
<path d="M182.245 39.09C181.044 38.7688 180.401 38.0788 180.009 36.6751C179.854 36.1517 179.807 35.4617 179.807 33.8439C179.807 31.9286 179.83 31.6074 180.08 30.8104C180.318 30.0847 180.473 29.823 180.925 29.3829C181.734 28.5978 182.507 28.3717 184.077 28.4788C184.743 28.5264 185.493 28.5978 185.755 28.6453C186.183 28.7286 186.23 28.7643 186.266 29.1331C186.29 29.3472 186.254 29.5018 186.207 29.4662C186.147 29.4305 185.54 29.3353 184.862 29.2639C182.804 29.0617 181.579 29.4305 181.127 30.394C180.735 31.2149 180.556 32.6424 180.627 34.403C180.77 38.2216 181.662 38.9115 185.766 38.3405C186.29 38.2691 186.29 38.281 186.29 38.626C186.29 38.9829 186.278 38.9948 185.398 39.1256C184.244 39.2922 182.935 39.2803 182.245 39.09Z" fill="#111111"/>
<path d="M189.597 39.09C188.835 38.8164 188.538 38.5547 188.217 37.8528C187.919 37.2104 187.896 37.0796 187.896 35.3904C187.896 33.6417 187.907 33.5941 188.252 32.8922C188.574 32.2617 188.693 32.1428 189.323 31.8216C190.263 31.3577 191.488 31.3339 192.452 31.7502C193.689 32.2974 194.081 33.1896 194.069 35.3904C194.058 37.6387 193.558 38.7093 192.309 39.0781C191.583 39.2922 190.191 39.3041 189.597 39.09ZM192.44 38.2335C193.023 37.7933 193.237 37.0201 193.249 35.3309C193.249 33.9748 193.225 33.7963 192.951 33.2491C192.559 32.4759 192.011 32.1785 190.929 32.1785C189.823 32.1785 189.18 32.5591 188.895 33.3681C188.597 34.177 188.597 36.4253 188.883 37.3532C189.061 37.9361 189.145 38.0432 189.62 38.2811C190.346 38.6498 191.916 38.6261 192.44 38.2335Z" fill="#111111"/>
<path d="M208.69 39.1733L208.178 39.1257V33.6536V28.1934H208.595H209.011V30.0967C209.011 31.1435 209.023 32.0001 209.047 32.0001C209.059 32.0001 209.368 31.8811 209.725 31.7502C210.201 31.5599 210.664 31.4885 211.402 31.4766C212.33 31.4647 212.461 31.5004 212.925 31.7978C213.781 32.3569 214.209 33.7963 214.102 35.7235C213.948 38.3763 212.972 39.2803 210.331 39.2328C209.701 39.2209 208.963 39.1971 208.69 39.1733ZM212.223 38.2454C212.473 38.0908 212.746 37.7934 212.901 37.4722C213.424 36.4015 213.377 33.7725 212.806 32.8447C212.342 32.0833 211.224 31.9406 209.641 32.4402L209.011 32.6424V35.5212C209.011 37.7101 209.047 38.4238 209.166 38.4714C209.237 38.5071 209.867 38.519 210.557 38.5071C211.557 38.4833 211.89 38.4357 212.223 38.2454Z" fill="#111111"/>
<path d="M216.684 39.1018C215.673 38.626 215.245 37.1152 215.804 35.9732C216.172 35.1881 216.874 34.9026 218.861 34.7241L220.431 34.5814V34.0104C220.431 33.1539 220.146 32.5353 219.634 32.2974C219.206 32.0952 218.111 32.0952 216.529 32.3212C216.018 32.3807 216.006 32.3807 216.054 32.0476C216.089 31.7502 216.149 31.6907 216.625 31.6074C216.922 31.5598 217.755 31.5004 218.468 31.4885C219.991 31.4647 220.419 31.6312 220.871 32.4282C221.121 32.8684 221.145 33.023 221.145 35.3546C221.145 36.7108 221.193 37.9479 221.252 38.1026C221.323 38.2929 221.526 38.4476 221.799 38.5427C222.144 38.6498 222.216 38.7331 222.192 38.9353C222.144 39.316 221.668 39.3279 221.002 38.971L220.455 38.6855L219.694 38.9234C218.718 39.2327 217.172 39.316 216.684 39.1018ZM219.872 38.2453L220.431 38.0431V36.6275V35.2119H220.11C219.337 35.2357 217.255 35.5331 217.017 35.6639C216.232 36.0922 216.184 37.9479 216.946 38.4119C217.243 38.6022 219.158 38.4952 219.872 38.2453Z" fill="#111111"/>
<path d="M224.928 38.9948C224.202 38.5785 224.119 38.1383 224.119 34.9502V32.238H223.524C222.941 32.238 222.929 32.2261 222.929 31.8811C222.929 31.5361 222.941 31.5242 223.524 31.5242H224.119V30.3346V29.145H224.535H224.952V30.3346V31.5242H226.201H227.45V31.8811V32.238H226.201H224.952L224.928 34.2365C224.892 36.7941 224.94 37.5673 225.13 38.0313C225.332 38.4952 225.618 38.5904 226.736 38.519L227.569 38.4714V38.7926C227.569 39.0543 227.497 39.1257 227.2 39.1852C226.391 39.3398 225.38 39.2565 224.928 38.9948Z" fill="#111111"/>
<path d="M106.23 35.331V31.5243H106.647C107.016 31.5243 107.063 31.56 107.063 31.8217C107.063 32.1786 107.075 32.1786 107.646 31.8931C108.288 31.56 109.526 31.3578 110.216 31.4648C110.668 31.5243 110.906 31.6433 111.239 31.9883C111.917 32.6544 111.976 33.0232 112.024 36.2589L112.071 39.1377H111.655H111.227V36.4373C111.215 33.2611 111.108 32.7258 110.394 32.3332C109.871 32.0358 108.741 32.1072 107.741 32.476L107.063 32.7258V35.9377V39.1377H106.647H106.23V35.331Z" fill="#111111"/>
<path d="M115.33 38.9947C115.295 38.9114 114.867 37.4482 114.379 35.7471C113.879 34.046 113.403 32.4044 113.308 32.0951L113.142 31.5241H113.582H114.034L114.985 34.9501L115.925 38.3642L116.294 38.3999L116.663 38.4356L117.567 35.307C118.067 33.5821 118.507 32.0356 118.542 31.8572C118.614 31.5717 118.685 31.5241 119.042 31.5241C119.542 31.5241 119.637 31.0245 118.293 35.6044C117.745 37.4839 117.293 39.0542 117.293 39.078C117.293 39.1137 116.865 39.1375 116.342 39.1375C115.687 39.1375 115.366 39.0899 115.33 38.9947Z" fill="#111111"/>
<path d="M127.881 35.3309V31.5242H128.297C128.666 31.5242 128.714 31.5599 128.714 31.8216C128.714 32.1785 128.725 32.1785 129.285 31.893C129.891 31.5837 131.093 31.3576 131.747 31.429C132.044 31.4647 132.473 31.6193 132.699 31.774C133.543 32.345 133.698 33.1063 133.71 36.4967V39.1376H133.293H132.877V36.4372C132.865 33.261 132.758 32.7257 132.044 32.3331C131.509 32.0357 130.391 32.1071 129.404 32.4878L128.714 32.7495V35.9376V39.1376H128.297H127.881V35.3309Z" fill="#111111"/>
<path d="M141.204 35.3309V31.5242H141.62H142.037V35.3309V39.1376H141.62H141.204V35.3309Z" fill="#111111"/>
<path d="M151.316 35.3308V31.5241H151.732C152.101 31.5241 152.149 31.5598 152.149 31.8334C152.149 32.0832 152.184 32.1308 152.363 32.0594C153.588 31.536 153.814 31.4884 154.718 31.4765C155.575 31.4647 155.729 31.5003 156.169 31.7858C156.586 32.0713 156.693 32.226 156.907 32.9041C157.121 33.594 157.145 34.0104 157.145 36.4134V39.1375H156.729H156.3L156.324 36.6037C156.348 33.0111 156.169 32.3806 155.027 32.1665C154.54 32.0713 153.398 32.2617 152.66 32.5472L152.149 32.7494V35.9494V39.1375H151.732H151.316V35.3308Z" fill="#111111"/>
<path d="M195.807 35.3309V31.5242H196.223C196.592 31.5242 196.639 31.5599 196.639 31.8216C196.639 31.9882 196.663 32.119 196.687 32.119C196.711 32.119 197.02 31.9882 197.365 31.8335C198.138 31.4648 199.316 31.322 199.899 31.5242C200.137 31.5956 200.494 31.7978 200.684 31.9525L201.029 32.2499L201.505 32.0001C202.088 31.7027 203.313 31.4053 203.955 31.4053C204.229 31.4053 204.669 31.5242 204.966 31.6789C206.073 32.238 206.275 32.9874 206.275 36.5443V39.1376H205.859H205.442V36.4372C205.43 33.261 205.323 32.7257 204.61 32.3332C204.074 32.0358 202.944 32.1071 201.957 32.4878C201.303 32.7376 201.267 32.7733 201.338 33.0588C201.386 33.2253 201.457 34.6648 201.481 36.2588L201.54 39.1376H201.124H200.708L200.66 36.2588C200.613 32.9517 200.553 32.6662 199.792 32.2975C199.233 32.0358 198.305 32.1071 197.306 32.4759L196.639 32.7257V35.9376V39.1376H196.223H195.807V35.3309Z" fill="#111111"/>
<path d="M6.3046 36.6752C4.24661 34.5101 2.39085 31.6551 1.67709 29.5257C1.0704 27.7413 0.915756 24.922 1.26074 22.2335C1.53434 20.1279 1.57003 20.1042 1.9507 21.603C2.35516 23.1614 2.75962 24.2796 3.6875 26.409C4.35367 27.9436 4.84141 29.4424 5.32914 31.4053C5.60274 32.5235 5.87635 32.6305 5.91204 31.6432C5.99531 29.038 6.36408 28.0387 8.79085 23.9108C9.38564 22.8997 9.89717 22.0194 9.92096 21.948C9.94475 21.8885 10.0042 21.8647 10.0518 21.9123C10.1827 22.0432 9.90906 25.1361 9.63546 26.5874C9.49271 27.3131 9.04066 28.919 8.62431 30.1562C7.73211 32.809 7.49419 33.9867 7.38713 36.1517L7.31575 37.7458L6.3046 36.6752Z" fill="#111111"/>
<path d="M71.3398 35.9614C71.2565 33.9391 70.9591 32.4759 70.1978 30.3584C69.2342 27.6581 68.687 24.7912 68.7822 22.8402L68.8178 21.948L70.0074 23.9703C72.2082 27.7175 72.7197 29.0142 72.8743 31.2506C72.9338 32.0001 73.0052 32.357 73.1004 32.357C73.1836 32.357 73.2788 32.1785 73.3264 31.9763C73.5881 30.6201 74.3613 28.1577 74.9085 26.8848C75.8483 24.7317 76.4074 23.1971 76.7881 21.7458C76.9665 21.0439 77.1569 20.4967 77.2045 20.5205C77.252 20.5562 77.3829 21.2938 77.5019 22.1741C77.7755 24.3034 77.7041 27.3012 77.3353 28.7763C76.8952 30.525 75.6699 32.7852 74.0045 34.9384C73.1242 36.0685 71.6491 37.7101 71.5063 37.7101C71.4468 37.7101 71.3755 36.925 71.3398 35.9614Z" fill="#111111"/>
<path d="M48.8922 34.4267C48.7256 34.403 48.0952 34.2959 47.5004 34.1888C46.8937 34.0818 46.394 33.9628 46.394 33.9152C46.394 33.7487 51.1643 29.7754 53.829 27.7056C55.5182 26.397 58.1591 24.5175 59.5985 23.5896C60.8238 22.8044 62.7985 21.71 62.858 21.7814C62.965 21.9004 63.1673 24.2557 63.1673 25.3264V26.516L62.7866 26.7182C61.3234 27.4676 58.3137 29.823 55.4111 32.4996C53.7933 33.9866 53.7814 33.9985 52.913 34.2007C52.0803 34.3911 49.5108 34.5338 48.8922 34.4267Z" fill="#111111"/>
<path d="M37.0318 29.7755L35.2236 28.8714L35.9612 28.2885C37.0675 27.432 42.4326 23.6134 44.1931 22.4238C46.6199 20.7941 48.8682 19.7829 51.069 19.3428C52.211 19.1168 53.7694 18.974 53.7694 19.1168C53.7694 19.1644 53.4006 19.4499 52.9485 19.7235C50.9857 20.9369 48.4043 22.9235 43.9314 26.6826C41.3024 28.8833 39.0779 30.6915 38.9946 30.6796C38.9114 30.6796 38.0311 30.2632 37.0318 29.7755Z" fill="#111111"/>
<path d="M141.204 29.026C141.204 28.5621 141.216 28.5502 141.62 28.5502C142.025 28.5502 142.037 28.5621 142.037 29.026C142.037 29.4899 142.025 29.5018 141.62 29.5018C141.216 29.5018 141.204 29.4899 141.204 29.026Z" fill="#111111"/>
<path d="M33.0111 27.325C32.5948 27.0989 32.3093 26.8729 32.3212 26.7659C32.3212 26.6707 32.4996 25.9688 32.6899 25.2194C33.142 23.5183 33.3085 22.3763 33.4156 20.4134L33.487 18.8789L34.3078 18.5339L35.1286 18.2008L35.0572 20.3778C35.0215 21.5673 34.9145 23.0305 34.8074 23.6134C34.5814 24.8506 34.0699 26.8848 33.8676 27.3726L33.7249 27.7056L33.0111 27.325Z" fill="#111111"/>
<path d="M72.7671 26.2424C71.8868 24.4818 70.7924 22.6855 69.6266 21.032C68.437 19.3546 67.8184 18.2483 67.2831 16.916C66.8906 15.9167 66.5337 14.5487 66.6526 14.4416C66.6764 14.4059 66.9144 14.6676 67.1761 15.0126C67.866 15.9048 68.437 16.4877 69.6028 17.4632C70.9709 18.6052 71.9344 19.878 72.5173 21.2937C72.6601 21.6505 72.8623 21.9598 72.9575 21.9836C73.1002 22.0074 73.1359 21.603 73.1954 19.3665C73.2311 17.9033 73.35 16.0476 73.4571 15.2267C73.6712 13.6446 73.6355 12.3717 73.35 11.1465C73.2668 10.7777 73.2192 10.4684 73.2668 10.4684C73.4333 10.4684 74.5991 12.3598 74.9203 13.1569C75.8601 15.4409 76.1218 18.2721 75.5865 20.3896C75.4913 20.794 75.0631 22.1383 74.6467 23.3754C74.2303 24.6245 73.8021 26.0639 73.695 26.5873C73.588 27.1108 73.4928 27.539 73.4809 27.5628C73.469 27.5747 73.1478 26.9799 72.7671 26.2424Z" fill="#111111"/>
<path d="M5.1152 26.6826C5.03193 26.2306 4.57988 24.696 4.10405 23.2566C3.04531 20.0685 2.92635 19.5689 2.93825 17.9034C2.93825 15.4648 3.58063 13.2045 4.79401 11.3964C5.17468 10.8135 5.51966 10.3495 5.53156 10.3733C5.55535 10.3971 5.51966 10.6588 5.46018 10.9443C5.15089 12.2767 5.12709 13.3592 5.36501 15.6075C5.48397 16.8447 5.61483 18.7718 5.63862 19.89C5.6981 22.1978 5.78137 22.3882 6.2691 21.2343C6.93527 19.6521 7.69661 18.7242 10.0401 16.6068C10.6111 16.0834 11.313 15.3696 11.5747 15.0127C12.1814 14.2157 12.2527 14.3703 11.8959 15.6551C11.42 17.3919 10.5873 19.0216 9.20739 20.8893C8.32709 22.0908 7.12561 24.0536 6.16204 25.8975C5.70999 26.7659 5.31743 27.4796 5.29364 27.4796C5.28174 27.4796 5.19847 27.1228 5.1152 26.6826Z" fill="#111111"/>
<path d="M31.6786 21.2937C28.9901 19.8305 27.2176 17.2372 26.8846 14.2632C26.7775 13.3472 26.8489 11.8126 26.9916 11.7294C27.0749 11.6699 29.0496 13.3115 30.0251 14.2513C31.179 15.3814 31.9046 16.6186 32.1782 17.9509C32.3924 18.9859 32.5232 21.0439 32.3924 21.3769L32.2972 21.6386L31.6786 21.2937Z" fill="#111111"/>
<path d="M93.2993 20.1636C91.9907 19.7949 91.4435 19.3904 90.9082 18.3792L90.587 17.7845L90.5513 13.2402L90.5156 8.68408H91.6576H92.7877V12.812V16.9279L93.0851 17.4395C93.8703 18.7837 95.9283 18.7361 96.7015 17.3562C96.9394 16.9398 96.9513 16.7376 96.9513 12.8001V8.68408H98.0814H99.2234L99.1877 13.2402L99.1521 17.7845L98.8309 18.3911C98.1647 19.664 97.0584 20.2231 95.1074 20.2945C94.2985 20.3302 93.7156 20.2826 93.2993 20.1636Z" fill="#111111"/>
<path d="M115.926 20.1755C114.891 19.7116 114.677 18.9859 114.677 15.9406V13.5614H114.141H113.606V12.6692V11.777H114.141H114.677V10.5874V9.39783H115.747H116.818V10.5874V11.777H117.888H118.959V12.6692V13.5614H117.888H116.818V15.7621C116.818 18.4149 116.83 18.4387 118.055 18.4387H118.828L118.9 19.0811C119.019 19.9614 118.959 20.1517 118.543 20.235C117.888 20.3778 116.294 20.3421 115.926 20.1755Z" fill="#111111"/>
<path d="M122.349 20.1874C121.516 19.8543 121.088 19.4855 120.743 18.7836C120.232 17.7725 120.077 16.7019 120.232 15.2981C120.446 13.4662 121.029 12.4431 122.159 11.9078C122.73 11.6461 122.98 11.5985 123.955 11.5985C124.883 11.5985 125.192 11.6461 125.716 11.884C126.489 12.229 127.119 12.9309 127.345 13.7279C127.524 14.3346 127.583 15.655 127.452 16.452L127.369 16.8922H124.895H122.409V17.261C122.409 17.5227 122.527 17.7487 122.825 18.0461L123.241 18.4625L125.264 18.4268L127.286 18.3792V19.1643V19.9375L126.548 20.0922C125.466 20.3063 122.789 20.3777 122.349 20.1874ZM125.383 14.8223C125.383 13.8587 124.859 13.3234 123.896 13.3234C123.015 13.3234 122.409 13.9301 122.409 14.8104V15.2268H123.896H125.383V14.8223Z" fill="#111111"/>
<path d="M130.676 20.116C129.499 19.5807 128.904 18.2127 128.904 16C128.904 13.8469 129.439 12.6097 130.629 11.9554C131.188 11.6461 131.39 11.5985 132.223 11.5985C132.746 11.5985 133.424 11.6342 133.745 11.6818L134.305 11.777V10.0521V8.32715H135.375H136.446V14.2751V20.2231H135.375C134.507 20.2231 134.305 20.1874 134.305 20.0446C134.305 19.8186 134.269 19.8186 133.472 20.1041C132.615 20.4015 131.319 20.4134 130.676 20.116ZM133.71 18.3078L134.305 18.177V15.8811V13.597L133.864 13.5138C133.615 13.4781 133.115 13.4424 132.746 13.4424C131.509 13.4424 131.152 14.0253 131.152 16.0595C131.152 18.2245 131.735 18.7361 133.71 18.3078Z" fill="#111111"/>
<path d="M155.123 20.2111C154.73 20.0565 154.195 19.5331 153.969 19.1167C153.873 18.9264 153.766 18.403 153.731 17.9509C153.612 16.6067 154.088 15.774 155.182 15.3457C155.384 15.2624 156.205 15.1435 157.026 15.0602C158.43 14.9293 158.513 14.9174 158.549 14.6557C158.608 14.2275 158.346 13.5851 158.061 13.4899C157.775 13.3948 154.837 13.4186 154.504 13.5137C154.314 13.5732 154.29 13.4899 154.29 12.8V12.0267L154.742 11.9078C156.479 11.4557 158.525 11.4438 159.393 11.8959C160.547 12.4788 160.714 13.0022 160.714 16.0238C160.714 18.2602 160.726 18.3435 160.987 18.5933C161.213 18.8193 161.249 18.9621 161.213 19.6163L161.178 20.3777L160.44 20.3182C160.024 20.2825 159.488 20.1516 159.227 20.0208L158.763 19.7829L158.227 20.0208C157.597 20.2944 155.61 20.4253 155.123 20.2111ZM158.215 18.4386C158.501 18.3673 158.513 18.3197 158.549 17.3918L158.584 16.4044L157.597 16.4877C156.514 16.571 156.122 16.7375 155.943 17.2015C155.789 17.6416 156.015 18.4267 156.348 18.5576C156.61 18.6647 157.609 18.6052 158.215 18.4386Z" fill="#111111"/>
<path d="M164.342 20.0685C164.009 19.89 163.771 19.6283 163.569 19.212C163.283 18.641 163.271 18.5101 163.236 16.0952L163.2 13.5614H162.724H162.26V12.6692V11.777H162.736H163.212V10.5874V9.39783H164.283H165.341L165.377 10.5636L165.413 11.7175L166.46 11.7532L167.494 11.7889V12.6692V13.5614H166.412H165.329L165.377 15.8216C165.401 17.4633 165.46 18.1175 165.567 18.2246C165.651 18.3079 166.103 18.403 166.578 18.4387L167.435 18.4982V19.3309C167.435 20.1517 167.435 20.1636 167.078 20.235C166.888 20.2826 166.293 20.3183 165.77 20.3302C164.996 20.3302 164.735 20.2945 164.342 20.0685Z" fill="#111111"/>
<path d="M175.108 20.1041C174.239 19.8067 173.454 18.974 173.133 18.0104C172.788 16.9398 172.812 14.7033 173.192 13.7636C173.561 12.8238 173.918 12.4431 174.846 11.9911C175.572 11.6342 175.738 11.5985 176.714 11.5985C178.438 11.6104 179.521 12.2171 180.152 13.5494C180.508 14.2989 180.52 14.4059 180.52 15.8216C180.52 17.7963 180.318 18.4625 179.473 19.3309C178.998 19.8186 178.7 20.0089 178.212 20.1517C177.332 20.4134 175.928 20.3896 175.108 20.1041ZM177.701 18.2245C178.153 17.8914 178.379 17.1182 178.379 15.881C178.379 14.1799 177.844 13.4067 176.702 13.4067C176.131 13.4067 175.691 13.6446 175.381 14.1204C175.072 14.5844 175.072 17.2491 175.369 17.7963C175.786 18.5576 176.94 18.7598 177.701 18.2245Z" fill="#111111"/>
<path d="M192.714 20.2707C192.547 20.235 192.131 20.1636 191.798 20.0923L191.167 19.9733V19.0692V18.1651L191.619 18.2484C191.857 18.2841 192.702 18.3436 193.487 18.3911C195.164 18.4625 195.486 18.3673 195.545 17.7488C195.581 17.4038 195.533 17.3443 195.188 17.2016C194.974 17.1064 194.32 16.9517 193.737 16.8328C191.691 16.4521 191.048 15.8454 191.048 14.2633C191.048 13.0618 191.488 12.4075 192.654 11.8722C193.178 11.6343 193.404 11.5986 194.558 11.6224C195.283 11.6462 196.211 11.7175 196.639 11.8008L197.413 11.9555L197.448 12.8714C197.472 13.5852 197.448 13.7874 197.329 13.7398C196.961 13.609 194.26 13.4662 193.844 13.5614C193.344 13.6685 193.19 13.835 193.19 14.2514C193.19 14.5963 193.606 14.7748 195.022 15.0484C197.091 15.4291 197.71 16.0358 197.71 17.6655C197.71 18.5577 197.579 18.9621 197.139 19.4261C196.485 20.116 196.009 20.2707 194.439 20.2945C193.654 20.3064 192.88 20.2945 192.714 20.2707Z" fill="#111111"/>
<path d="M100.877 16V11.7769H101.948C102.923 11.7769 103.018 11.8007 103.018 12.003C103.018 12.229 103.054 12.2171 103.708 11.9197C104.267 11.658 104.553 11.5985 105.362 11.5985C106.242 11.5985 106.373 11.6342 106.849 11.9554C107.122 12.1576 107.455 12.5145 107.586 12.7643C108.062 13.7398 108.133 14.3465 108.133 17.3442V20.223H107.075H106.016L105.968 17.4037C105.909 14.287 105.838 13.9182 105.255 13.6089C104.874 13.4186 103.91 13.4543 103.292 13.6922L103.018 13.7993V17.0112V20.223H101.948H100.877V16Z" fill="#111111"/>
<path d="M109.799 16V11.777H110.869H111.94V16V20.2231H110.869H109.799V16Z" fill="#111111"/>
<path d="M142.989 14.4536V8.68408H144.928H146.879L148.104 12.8833C148.77 15.1792 149.401 17.3205 149.496 17.6417C149.579 17.951 149.71 18.2008 149.769 18.2008C149.841 18.2008 149.888 16.4045 149.888 13.4424V8.68408H151.019H152.149V14.4536V20.235L150.281 20.1993L148.413 20.1636L146.962 15.4053C146.165 12.8001 145.463 10.635 145.38 10.6112C145.285 10.5755 145.249 11.8246 145.249 15.3934V20.2231H144.119H142.989V14.4536Z" fill="#111111"/>
<path d="M169.16 16V11.777H170.23H171.301V16V20.2231H170.23H169.16V16Z" fill="#111111"/>
<path d="M182.007 16V11.777H183.137C184.16 11.777 184.268 11.8008 184.268 12.003C184.268 12.2052 184.303 12.1933 184.874 11.9316C185.267 11.7413 185.778 11.6223 186.326 11.5748C187.099 11.5272 187.253 11.551 187.836 11.8603C189.109 12.5145 189.383 13.5138 189.383 17.4751V20.2231H188.253H187.123V17.4275C187.123 14.3822 187.063 14.0015 186.48 13.6209C186.23 13.4543 186.028 13.4305 185.493 13.5019C185.124 13.5495 184.696 13.6328 184.541 13.6922L184.268 13.7993V17.0112V20.2231H183.137H182.007V16Z" fill="#111111"/>
<path d="M71.1492 17.1183C70.5306 16.4521 69.1864 15.2149 68.1752 14.3584C66.0102 12.5383 65.0347 11.5748 64.4042 10.6231C63.9165 9.88556 63.4882 8.81492 63.3455 7.98221L63.2622 7.47069L64.428 8.64838C65.0823 9.30266 66.0577 10.1473 66.6169 10.5279C67.7708 11.325 68.996 12.4551 69.8525 13.5376C70.4592 14.287 70.6615 14.4298 70.6615 14.0848C70.6615 13.9777 70.3165 12.4194 69.8882 10.635C69.115 7.33983 68.8414 6.5666 68.0325 5.3889C67.8421 5.1153 67.6875 4.86548 67.6875 4.82979C67.6875 4.78221 68.0801 4.94875 68.5559 5.18667C69.7217 5.78147 71.0183 7.06622 71.4823 8.11306C72.1722 9.64764 72.2436 10.1116 72.2912 13.8588C72.3269 15.7621 72.3269 17.5346 72.3031 17.8082L72.2674 18.3198L71.1492 17.1183Z" fill="#111111"/>
<path d="M6.44732 14.3703C6.5068 10.1948 6.59007 9.58815 7.31572 7.9941C7.83914 6.85209 9.74249 5.17477 10.9202 4.81789C11.1819 4.74652 11.17 4.78221 10.7893 5.31752C10.2183 6.11455 9.81386 6.94726 9.54026 7.91083C9.06442 9.51678 8.05327 14.1562 8.13654 14.2395C8.19602 14.2989 8.39825 14.1205 8.61238 13.8588C9.46888 12.7644 10.9559 11.3369 12.0741 10.5517C12.7284 10.0997 13.7633 9.21938 14.37 8.60079C15.5596 7.37552 15.6072 7.38741 15.2384 8.70786C14.7864 10.3614 13.68 11.7056 10.6466 14.2751C9.67111 15.096 8.35067 16.3212 7.72018 16.9874C7.0897 17.6536 6.54249 18.2008 6.49491 18.2008C6.44732 18.2008 6.42353 16.4759 6.44732 14.3703Z" fill="#111111"/>
<path d="M33.3438 16.6781C33.439 15.3577 33.6769 14.4655 34.2479 13.264C35.5327 10.5636 37.9238 8.62459 41.5163 7.32793C42.2777 7.05433 42.3609 7.04243 42.3015 7.22087C41.0286 11.6343 40.5171 12.8238 39.3632 14.0848C38.126 15.429 37.1624 16.0595 34.7951 17.0707L33.2725 17.7131L33.3438 16.6781Z" fill="#111111"/>
<path d="M67.1524 9.44538C64.4996 7.13757 63.7739 6.34054 61.7516 3.5688C60.681 2.11749 59.8483 0.904112 59.8721 0.868424C60.0267 0.725673 62.5368 1.91526 63.9405 2.80746C66.058 4.1398 67.2594 5.79333 68.1397 8.56508C68.4609 9.60002 68.7226 10.7182 68.6156 10.6944C68.6037 10.6944 67.9375 10.1234 67.1524 9.44538Z" fill="#111111"/>
<path d="M10.1707 10.2067C10.7298 7.61341 11.9431 5.16285 13.2517 3.94947C13.9298 3.31898 15.4643 2.31973 16.6539 1.72493C17.8316 1.13014 19.0807 0.666196 18.9617 0.85653C18.355 1.83199 15.1193 6.09073 14.4651 6.7569C13.6205 7.6372 10.3015 10.5874 10.1588 10.5874C10.1231 10.5874 10.135 10.4089 10.1707 10.2067Z" fill="#111111"/>
<path d="M109.799 9.45726V8.32715H110.869H111.94V9.45726V10.5874H110.869H109.799V9.45726Z" fill="#111111"/>
<path d="M169.16 9.45726V8.32715H170.23H171.301V9.45726V10.5874H170.23H169.16V9.45726Z" fill="#111111"/>
</svg>
